<svg xmlns="http://www.w3.org/2000/svg" width="24" height="24" id="chevron-up">
  <g fill="none" fill-rule="evenodd">
    <path d="M0 0h24v24H0z"></path>
    <g fill="#2CBD3E" transform="translate(1 1)">
      <circle cx="11" cy="11" r="9" fill-opacity=".24"></circle>
      <path fill-rule="nonzero" d="M7.707 13.707a1 1 0 1 1-1.414-1.414l4-4a1 1 0 0 1 1.414 0l4 4a1 1 0 0 1-1.414 1.414L11 10.414l-3.293 3.293ZM11 22C4.925 22 0 17.075 0 11S4.925 0 11 0s11 4.925 11 11-4.925 11-11 11Zm0-2a9 9 0 1 0 0-18 9 9 0 0 0 0 18Z"></path>
    </g>
  </g>
</svg>
